<svg xmlns="http://www.w3.org/2000/svg" width="499.675" height="67.805" viewBox="0 0 499.675 67.805">
  <g id="logo_1_" data-name="logo (1)" transform="translate(-1.382 183.768)">
    <path id="Path_654132" data-name="Path 654132" d="M91.37-183.26c-7.241,2.228-6.35,12.7,1.151,13.442a6.623,6.623,0,0,0,7.39-6.2c.26-3.453-1.151-5.607-4.493-7.055C93.338-183.966,93.636-183.966,91.37-183.26Z" transform="translate(-53.443 0)" fill="#fff"/>
    <path id="Path_654133" data-name="Path 654133" d="M153.9-179.245a9.192,9.192,0,0,0-6.238,13.22,8.866,8.866,0,0,0,8.392,4.939,8.076,8.076,0,0,0,6.09-2.228c2.228-1.968,3.008-3.788,2.971-7.055,0-3.268-.483-4.382-2.859-6.573A9.347,9.347,0,0,0,153.9-179.245Z" transform="translate(-91.318 -2.715)" fill="#fff"/>
    <path id="Path_654134" data-name="Path 654134" d="M524.414-153.572c-.149.52-.483,2.6-.743,4.642-.408,3.156-.408,3.788.037,4.307a1.912,1.912,0,0,1,.446,1.3c-.186,1.3.52,1.077,1-.3a6.149,6.149,0,0,1,2.748-3.825c1.745-.891,5.83-1.337,11.251-1.225l5.124.111-11.14,17.416c-6.127,9.58-11.14,17.6-11.14,17.787a2.009,2.009,0,0,0,.557.854,1.58,1.58,0,0,1,.334,1.485l-.223.891H530.8c4.493,0,11.4.111,15.373.26,6.387.186,7.278.149,7.835-.371.78-.78,1.411-3.676,1.671-7.687.186-2.9.149-3.231-.594-3.862-.743-.668-.78-.668-.966,0-.78,2.525-1.931,4.085-3.713,4.976s-2.228.928-9.358,1.04c-4.642.074-7.538,0-7.538-.223a3.376,3.376,0,0,1,.668-1.225c.965-1.263,13.405-20.572,17.527-27.256,2.748-4.382,3.491-5.9,3.565-7.092.186-2.785.706-2.711-15.893-2.822l-14.742-.111Z" transform="translate(-327.295 -18.4)" fill="#fff"/>
    <path id="Path_654135" data-name="Path 654135" d="M672-153.624q0,.947,2.674,1.337c2.525.371,2.6.965.149.965-2.562,0-2.711.557-.26.891a4.243,4.243,0,0,1,2.3.854c.408.483.52,3.565.52,16.042,0,8.5-.148,16.264-.3,17.23-.371,2.228-1.337,3.231-3.045,3.231-.706,0-1.3.111-1.3.223,0,.706,1.263,1.263,2.859,1.263,1.634.037,1.745.074,1.077.557a3.963,3.963,0,0,1-1.968.557c-.668,0-1.225.149-1.225.3,0,.186,3.973.446,8.838.557,11.957.3,14.7-.3,18.121-3.9,2.748-2.822,3.3-4.345,3.3-8.838,0-3.639-.074-4.048-1.114-5.867-1.077-2.005-4.419-5.384-5.978-6.09-.854-.408-.854-.408.557-2.3,1.857-2.451,2.265-3.825,2.265-7.2s-.854-5.421-3.045-7.278c-2.748-2.377-3.825-2.562-14.668-2.748C675.639-153.921,672-153.847,672-153.624Zm16.97,4.939a8.447,8.447,0,0,1,3.676,3.379c1.077,2.079.408,5.57-1.523,7.65-1.151,1.263-1.374,1.337-3.862,1.485l-2.636.149V-142.3a43.363,43.363,0,0,1,.26-6.535C685.257-149.243,687.819-149.131,688.97-148.686Zm.891,17.787c1.745.483,4.2,2.6,5.421,4.716.817,1.411,1,2.154,1,4.53.037,3.416-.743,4.976-3.156,6.313-2.711,1.522-7.8,1.04-8.281-.817-.111-.446-.223-4.048-.223-7.984v-7.13h1.968A16.512,16.512,0,0,1,689.861-130.9Z" transform="translate(-421.594 -18.793)" fill="#fff"/>
    <path id="Path_654136" data-name="Path 654136" d="M38.244-149.215c-1.82.817-2.525,2.228-2.377,4.976a4.586,4.586,0,0,0,1.3,2.154,3.235,3.235,0,0,0,2.6,1.263c2.822,0,4.679-1.745,4.679-4.345A4.485,4.485,0,0,0,38.244-149.215Z" transform="translate(-21.668 -21.494)" fill="#fff"/>
    <path id="Path_654137" data-name="Path 654137" d="M845.742-138.314c-7.464,1.04-12.922,5.421-15.262,12.328-2.191,6.424.074,16.19,4.9,21.129,6.5,6.684,19.569,7.427,27.293,1.6a17.366,17.366,0,0,0,6.87-10.435c1.374-5.5.594-12.18-1.931-16.116a18.906,18.906,0,0,0-10.88-7.909A36,36,0,0,0,845.742-138.314Zm7.984,5.607a15.432,15.432,0,0,1,7.018,6.276c1.968,3.6,1.968,11.251.037,15.485-2.005,4.456-5.087,6.424-10.026,6.424a9.624,9.624,0,0,1-5.273-1.077c-5.607-2.674-8.169-7.872-7.835-15.856.186-4.382,1.114-6.8,3.565-9.172C844.108-133.449,849.419-134.34,853.726-132.707Z" transform="translate(-520.698 -28.459)" fill="#fff"/>
    <path id="Path_654138" data-name="Path 654138" d="M944.747-138.33c-.111.26-.408,1.82-.706,3.453-.446,2.6-.446,3.045.037,3.6a1.392,1.392,0,0,1,.3,1.337c-.408,1.374.52,1.225,1.151-.149.928-1.931,2.265-2.377,7.39-2.377h4.27v13.405c0,15.373-.037,15.522-2.859,15.559-.668,0-1.225.111-1.225.223,0,.631,1.263,1.263,2.562,1.263,1.522,0,2.005.483.928.891a6.494,6.494,0,0,1-1.671.223c-.594,0-1.077.149-1.077.371s2.934.371,8.021.371c5.236,0,7.909-.111,7.761-.371-.111-.223-.891-.371-1.671-.371-1.634,0-2.6-.3-2.6-.78,0-.186,1.04-.334,2.3-.334,2.228,0,2.265,0,1.6-.743a2.825,2.825,0,0,0-2.265-.743c-1.263,0-1.708-.186-2.042-.78-.26-.52-.483-5.459-.594-14.519l-.223-13.739,4.864.149c5.422.111,6.758.631,7.13,2.748.111.594.371,1.04.557,1,.594-.149.668-8.578.111-9.135-.371-.334-4.233-.446-15.336-.446-8.169,0-15.225-.149-15.707-.3C945.193-138.738,944.859-138.664,944.747-138.33Z" transform="translate(-592.41 -28.369)" fill="#fff"/>
    <path id="Path_654139" data-name="Path 654139" d="M1143.448-138.346c-10.4,1.448-16.9,9.023-16.227,18.938a29.97,29.97,0,0,0,3.119,10.843c2.005,3.676,6.684,6.944,11.808,8.281,4.642,1.225,14.89,1.077,17.341-.223.854-.483,1.374-2.488,1.671-6.461.186-2.822.111-3.416-.371-3.862-.78-.631-1.225-.3-1.485,1-.3,1.56-2.042,3.416-3.9,4.233-2.228,1-7.315,1.04-10.1.111a16.309,16.309,0,0,1-6.87-4.493,24.683,24.683,0,0,1-1.968-3.416c-.928-1.968-1-2.488-1-6.758.037-3.936.149-4.9.817-6.387a12.762,12.762,0,0,1,5.793-5.9c1.671-.78,2.525-.891,6.2-.891,4.568,0,6.536.408,8.578,1.782a8.305,8.305,0,0,1,3.008,4.976c.074.557.3,1.04.483,1.04.223,0,.52-2.228.706-5.273.26-4.493.223-5.347-.223-5.83C1159.526-137.937,1148.386-139.014,1143.448-138.346Z" transform="translate(-707.746 -28.427)" fill="#fff"/>
    <path id="Path_654140" data-name="Path 654140" d="M1054.808-137.622c-6.5.074-11.808.223-11.808.334,0,.557,1.114,1.151,2.562,1.374,2.6.334,2.785,1,.3,1-1.151,0-2.117.149-2.117.371,0,.186.483.371,1.077.371a6.221,6.221,0,0,1,2.042.371l.965.371v14.111c0,16.227,0,16.3-2.859,16.339-.668,0-1.225.111-1.225.223,0,.631,1.263,1.263,2.562,1.263,1.522,0,2.005.483.928.891a6.493,6.493,0,0,1-1.671.223c-.594,0-1.077.149-1.077.3,0,.371,22.317.928,23.171.594.78-.3,1.263-2.042,1.56-5.459.223-2.451.148-2.971-.408-3.6-.928-1.04-1.077-.965-1.6.928-.631,2.377-1.857,2.934-6.387,2.971-2.785,0-3.788-.149-4.567-.668l-1-.631v-11.214l4.419.149c4.939.111,5.83.52,6.053,2.674.186,1.857.817,1.188,1.114-1.151.483-4.122.483-7.055-.037-7.65-.408-.52-.594-.52-1.634.149-1,.594-1.894.706-5.533.706h-4.382v-10.137l4.679.223c4.159.186,4.79.3,5.57,1.04a2.758,2.758,0,0,1,.891,1.931c0,.668.148,1,.483.928.965-.334,1.411-8.132.483-9.061-.3-.3-.594-.483-.668-.446C1066.617-137.734,1061.27-137.659,1054.808-137.622Z" transform="translate(-654.829 -28.89)" fill="#fff"/>
    <path id="Path_654141" data-name="Path 654141" d="M774-136.666c0,.557.854,1.04,2.339,1.3,1.82.334,1.782.965-.111.965-1.931,0-1.894.52.111.965l1.56.334v14.519c0,13.777-.037,14.593-.706,15.336a2.652,2.652,0,0,1-1.968.78c-.668,0-1.225.111-1.225.223,0,.631,1.263,1.263,2.637,1.263,1.337,0,1.485.074,1.077.557a2.67,2.67,0,0,1-1.708.557c-.706,0-1.263.149-1.263.371s2.859.371,7.8.371,7.8-.149,7.8-.371-.706-.371-1.6-.371a4.812,4.812,0,0,1-2.339-.557c-.631-.483-.52-.52,1.634-.557a6.479,6.479,0,0,0,2.3-.223c0-.631-1.263-1.263-2.525-1.263-2.562,0-2.488.408-2.488-15.41,0-15.745-.074-15.225,2.451-15.633,1.968-.334,1.82-.891-.26-.891-2.042,0-1.857-.631.26-.965,1.6-.26,1.671-.334.928-1.114-.446-.408-1.968-.52-7.612-.52C777.193-137,774-136.851,774-136.666Z" transform="translate(-485.718 -29.401)" fill="#fff"/>
    <path id="Path_654142" data-name="Path 654142" d="M1233.051-136.257a2.375,2.375,0,0,0,1.522.743,5.768,5.768,0,0,1,1.894.446c1,.446.965.446-1.188.668-2.3.223-2.228.408.371.965l1.485.334.111,13.925c.037,7.649,0,14.3-.111,14.742a2.463,2.463,0,0,1-2.636,1.968c-.706,0-1.262.111-1.262.223,0,.631,1.262,1.263,2.562,1.263,1.522,0,2.005.483.928.891a6.5,6.5,0,0,1-1.671.223c-.594,0-1.077.149-1.077.371s2.9.371,7.984.371,7.984-.149,7.984-.371-.817-.371-1.819-.371a3.148,3.148,0,0,1-2.265-.557c-.409-.483-.186-.557,1.82-.557a6.354,6.354,0,0,0,2.265-.223c0-.668-1.262-1.263-2.748-1.263-1.3,0-1.782-.186-2.079-.743-.223-.446-.334-3.045-.3-6.87l.111-6.164,8.838-.074,8.8-.074v5.867c0,7.167-.3,8.058-2.859,8.058-.668,0-1.225.111-1.225.223,0,.631,1.262,1.263,2.562,1.263,1.522,0,2.005.483.928.891a6.5,6.5,0,0,1-1.671.223c-.594,0-1.077.149-1.077.371s2.9.371,7.984.371,7.984-.149,7.984-.371-.743-.371-1.634-.371c-1.819,0-2.822-.26-2.822-.78,0-.186,1-.334,2.228-.334a6.065,6.065,0,0,0,2.228-.223c0-.668-1.263-1.263-2.748-1.263-1.3,0-1.782-.186-2.079-.706-.483-.965-.52-28.407,0-29.373a2.726,2.726,0,0,1,1.856-.928c2.191-.371,2.191-.928,0-.928-2.154,0-2.191-.52-.111-.928,1.857-.334,2.079-.52,1.448-1.151-.446-.408-2.042-.52-8.169-.52a69.549,69.549,0,0,0-7.649.223c0,.557,1.114,1.151,2.562,1.374,2.6.334,2.785,1,.3,1-1.151,0-2.117.149-2.117.371,0,.186.483.371,1.077.371a6.221,6.221,0,0,1,2.042.371l.965.371v11.14h-17.824v-5.05a26.4,26.4,0,0,1,.371-5.719,2.726,2.726,0,0,1,1.857-.928c2.191-.371,2.191-.928,0-.928-2.154,0-2.191-.52-.111-.928,1.857-.334,2.079-.52,1.448-1.151-.445-.408-2.042-.52-8.244-.52C1232.42-137,1232.382-137,1233.051-136.257Z" transform="translate(-774.141 -29.401)" fill="#fff"/>
    <path id="Path_654143" data-name="Path 654143" d="M82.674-127.159c-3.713,1.448-7.2,5.681-8.1,9.878-.223,1.151-.334,1.188-3.453,1.931-17.935,4.122-33.457,4.53-45.637,1.151A64.323,64.323,0,0,1,3.542-125.6c-1.077-.928-2.042-1.6-2.154-1.485-.3.3,9.172,8.318,12.848,10.843A62.1,62.1,0,0,0,34.214-107c5.681,1.485,9.061,1.857,16.042,1.857,7.2,0,10.694-.371,19.606-2.042l6.053-1.151.594.817a13.527,13.527,0,0,0,5.013,4.493c2.228,1.188,2.525,1.263,6.053,1.263,3.231,0,3.973-.111,5.756-.965a14.214,14.214,0,0,0,7.649-10.1c.111-.965.334-1.745.483-1.745.111,0,1.411-.26,2.822-.557q28.908-6.183,51.43,2.3a102.9,102.9,0,0,1,17.193,8.8c1.522,1.077,2.971,2.079,3.268,2.228.965.483-2.414-2.414-6.164-5.347-11.808-9.172-23.84-14.371-37.282-16.19-7.761-1-20.349-.557-30.041,1.151l-3.119.52L97.267-124c-3.008-3.008-5.236-3.936-9.618-3.9A13.384,13.384,0,0,0,82.674-127.159Z" transform="translate(0 -35.12)" fill="#fff"/>
    <path id="Path_654144" data-name="Path 654144" d="M407.81-60.291a4.952,4.952,0,0,0-2.005,6.684,4.988,4.988,0,0,0,8.132,1.411C418.133-56.392,412.9-63.373,407.81-60.291Z" transform="translate(-253.877 -77.146)" fill="#fff"/>
    <path id="Path_654145" data-name="Path 654145" d="M273.135-58.492a10,10,0,0,0-6.276,5.719,9.694,9.694,0,0,0,4.6,12.254,7.858,7.858,0,0,0,4.27.817c3.156,0,4.939-.743,6.907-2.859,2.005-2.117,2.562-3.528,2.562-6.61a8.55,8.55,0,0,0-.706-4.085A11.464,11.464,0,0,0,280-57.786,12.265,12.265,0,0,0,273.135-58.492Z" transform="translate(-166.436 -78.611)" fill="#fff"/>
    <path id="Path_654146" data-name="Path 654146" d="M347.66-36.294a6.758,6.758,0,0,0,.3,11.883,6.858,6.858,0,0,0,8.764-2.3,5.185,5.185,0,0,0,.965-3.565,6.16,6.16,0,0,0-2.822-5.607A4.895,4.895,0,0,0,351.076-37,6.425,6.425,0,0,0,347.66-36.294Z" transform="translate(-215.562 -92.268)" fill="#fff"/>
  </g>
</svg>
